<?xml version="1.0" encoding="utf-8"?><svg xmlns="http://www.w3.org/2000/svg" xmlns:xlink="http://www.w3.org/1999/xlink"><symbol viewBox="0 0 486.569 486.569" id="cart" xmlns="http://www.w3.org/2000/svg"><path d="M146.069 320.369h268.1c30.4 0 55.2-24.8 55.2-55.2v-114c0-.2 0-.4-.1-.6 0-.2-.1-.5-.1-.7s-.1-.4-.1-.6c-.1-.2-.1-.4-.2-.7-.1-.2-.1-.4-.2-.6-.1-.2-.1-.4-.2-.6-.1-.2-.2-.4-.3-.7-.1-.2-.2-.4-.3-.5l-.3-.6c-.1-.2-.2-.3-.3-.5-.1-.2-.3-.4-.4-.6-.1-.2-.2-.3-.4-.5-.1-.2-.3-.3-.4-.5s-.3-.3-.4-.5-.3-.3-.4-.4l-.5-.5c-.2-.1-.3-.3-.5-.4-.2-.1-.4-.3-.6-.4-.2-.1-.3-.2-.5-.3s-.4-.2-.6-.4l-.6-.3-.6-.3-.6-.3c-.2-.1-.4-.1-.6-.2-.2-.1-.5-.2-.7-.2s-.4-.1-.5-.1c-.3-.1-.5-.1-.8-.1-.1 0-.2-.1-.4-.1l-339.8-46.9v-47.4c0-.5 0-1-.1-1.4 0-.1 0-.2-.1-.4 0-.3-.1-.6-.1-.9-.1-.3-.1-.5-.2-.8 0-.2-.1-.3-.1-.5l-.3-.9c0-.1-.1-.3-.1-.4-.1-.3-.2-.5-.4-.8-.1-.1-.1-.3-.2-.4-.1-.2-.2-.4-.4-.6-.1-.2-.2-.3-.3-.5s-.2-.3-.3-.5-.3-.4-.4-.6l-.3-.3-.6-.6-.3-.3c-.2-.2-.4-.4-.7-.6-.1-.1-.3-.2-.4-.3-.2-.2-.4-.3-.6-.5-.3-.2-.6-.4-.8-.5-.1-.1-.2-.1-.3-.2-.4-.2-.9-.4-1.3-.6l-73.7-31c-6.9-2.9-14.8.3-17.7 7.2s.3 14.8 7.2 17.7l65.4 27.6v295.8c0 28 21 51.2 48.1 54.7-4.9 8.2-7.8 17.8-7.8 28 0 30.1 24.5 54.5 54.5 54.5s54.5-24.5 54.5-54.5c0-10-2.7-19.5-7.5-27.5h121.4c-4.8 8.1-7.5 17.5-7.5 27.5 0 30.1 24.5 54.5 54.5 54.5s54.5-24.5 54.5-54.5-24.5-54.5-54.5-54.5h-255c-15.6 0-28.2-12.7-28.2-28.2v-36.6c8.2 4.8 17.9 7.6 28.2 7.6zm67.2 111.6c0 15.2-12.4 27.5-27.5 27.5s-27.5-12.4-27.5-27.5 12.4-27.5 27.5-27.5 27.5 12.3 27.5 27.5zm215.4 0c0 15.2-12.4 27.5-27.5 27.5s-27.5-12.4-27.5-27.5 12.4-27.5 27.5-27.5 27.5 12.3 27.5 27.5zm-14.5-138.6h-268.1c-15.6 0-28.2-12.7-28.2-28.2v-145.9l324.5 44.7v101.1c0 15.7-12.7 28.3-28.2 28.3z"/></symbol><symbol viewBox="0 0 357 357" id="close" xmlns="http://www.w3.org/2000/svg"><path d="M357 35.7L321.3 0 178.5 142.8 35.7 0 0 35.7l142.8 142.8L0 321.3 35.7 357l142.8-142.8L321.3 357l35.7-35.7-142.8-142.8z"/></symbol><symbol viewBox="0 0 26 22" id="github" xmlns="http://www.w3.org/2000/svg"><path d="M25.047 17.422C22.984 21.594 17.313 22 13.25 22 9.125 22 3.109 21.641.969 17.422.172 15.844 0 13.984 0 12.25c0-2.281.625-4.438 2.125-6.188a8.585 8.585 0 0 1-.422-2.656c0-1.172.266-2.343.797-3.406 2.469 0 4.047 1.078 5.922 2.547A20.895 20.895 0 0 1 13.25 2c1.469 0 2.953.156 4.375.5C19.484 1.047 21.063 0 23.5 0a7.629 7.629 0 0 1 .797 3.406c0 .891-.141 1.781-.422 2.625C25.375 7.797 26 9.969 26 12.25c0 1.734-.172 3.578-.953 5.172zM18.5 10.5c-1.031 0-2.016.188-3.047.328-.812.125-1.625.172-2.453.172s-1.641-.047-2.453-.172c-1.016-.14-2.016-.328-3.047-.328-2.547 0-4 2.109-4 4.5 0 4.781 4.375 5.516 8.188 5.516h2.625c3.813 0 8.188-.734 8.188-5.516-.001-2.391-1.454-4.5-4.001-4.5zM8 18c-1.406 0-2-1.859-2-3s.594-3 2-3 2 1.859 2 3-.594 3-2 3zm10 0c-1.406 0-2-1.859-2-3s.594-3 2-3 2 1.859 2 3-.594 3-2 3z"/></symbol><symbol viewBox="0 0 24 22.938" id="linkedin" xmlns="http://www.w3.org/2000/svg"><path d="M2.875 5.344h-.031C1.109 5.344 0 4.156 0 2.672 0 1.156 1.156 0 2.906 0c1.766 0 2.859 1.156 2.875 2.672.016 1.484-1.109 2.672-2.906 2.672zm2.578 17.594H.297V7.453h5.156v15.485zm18.547 0h-5.141v-8.281c0-2.078-.75-3.5-2.609-3.5-1.422 0-2.266.953-2.641 1.875-.125.344-.172.797-.172 1.266v8.641h-5.14c.063-14.031 0-15.484 0-15.484h5.141v2.25h-.031c.672-1.063 1.891-2.609 4.672-2.609 3.391 0 5.922 2.219 5.922 6.969v8.873z"/></symbol><symbol viewBox="0 0 348.077 348.077" id="phone" xmlns="http://www.w3.org/2000/svg"><path d="M340.273 275.083l-53.755-53.761c-10.707-10.664-28.438-10.34-39.518.744l-27.082 27.076a792.327 792.327 0 0 1-5.344-2.973c-17.102-9.476-40.509-22.464-65.14-47.113-24.704-24.701-37.704-48.144-47.209-65.257-1.003-1.813-1.964-3.561-2.913-5.221l18.176-18.149 8.936-8.947c11.097-11.1 11.403-28.826.721-39.521L73.39 8.194c-10.682-10.68-28.421-10.356-39.518.744l-15.15 15.237.414.411c-5.08 6.482-9.325 13.958-12.484 22.02C3.74 54.28 1.927 61.603 1.098 68.941-6 127.785 20.89 181.564 93.866 254.541c100.875 100.868 182.167 93.248 185.674 92.876 7.638-.913 14.958-2.738 22.397-5.627 7.992-3.122 15.463-7.361 21.941-12.43l.331.294 15.348-15.029c11.074-11.098 11.393-28.83.716-39.542z"/></symbol><symbol viewBox="0 0 410.23 410.23" id="search" xmlns="http://www.w3.org/2000/svg"><path d="M401.625 364.092l-107.1-107.1c19.125-26.775 30.6-59.288 30.6-93.713C325.125 73.391 252.45.717 162.563.717S0 73.392 0 163.279s72.675 162.562 162.562 162.562c34.425 0 66.938-11.475 93.713-30.6l107.1 107.1c9.562 9.562 26.775 9.562 38.25 0 11.475-11.474 11.475-26.775 0-38.249zm-239.063-76.5c-68.85 0-124.312-55.463-124.312-124.312 0-68.85 55.462-124.312 124.312-124.312S286.874 94.43 286.874 163.28c.001 68.849-55.462 124.312-124.312 124.312z"/></symbol><symbol viewBox="0 0 30.011 17.123" id="vk" xmlns="http://www.w3.org/2000/svg"><path d="M27.625 5.832c-3.031 4.031-3.359 3.656-.859 5.984 2.406 2.234 2.906 3.313 2.984 3.453 0 0 1 1.75-1.109 1.766l-4 .063c-.859.172-2-.609-2-.609-1.5-1.031-2.906-3.703-4-3.359 0 0-1.125.359-1.094 2.766.016.516-.234.797-.234.797s-.281.297-.828.344h-1.797c-3.953.25-7.438-3.391-7.438-3.391S3.437 9.707.093 1.848c-.219-.516.016-.766.016-.766S.343.785 1 .785L5.281.754c.406.063.688.281.688.281s.25.172.375.5c.703 1.75 1.609 3.344 1.609 3.344 1.563 3.219 2.625 3.766 3.234 3.438 0 0 .797-.484.625-4.375-.063-1.406-.453-2.047-.453-2.047-.359-.485-1.031-.625-1.328-.672-.234-.031.156-.594.672-.844.766-.375 2.125-.391 3.734-.375 1.266.016 1.625.094 2.109.203 1.484.359.984 1.734.984 5.047 0 1.063-.203 2.547.563 3.031.328.219 1.141.031 3.141-3.375 0 0 .938-1.625 1.672-3.516.125-.344.391-.484.391-.484s.25-.141.594-.094l4.5-.031c1.359-.172 1.578.453 1.578.453.234.641-.501 2.141-2.344 4.594z"/></symbol></svg>