<?xml version="1.0" encoding="utf-8"?><svg xmlns="http://www.w3.org/2000/svg" xmlns:xlink="http://www.w3.org/1999/xlink"><symbol viewBox="0 0 512 512" id="assortment" xmlns="http://www.w3.org/2000/svg"><path d="M478.318 364.815l33.391-178.085c1.924-10.264-5.958-19.772-16.409-19.772h-50.087v-41.739l6.678 5.009c7.376 5.533 17.842 4.037 23.374-3.339 5.533-7.376 4.037-17.841-3.339-23.374L338.362 3.341a16.697 16.697 0 0 0-20.035 0L184.764 103.514c-7.376 5.533-8.872 15.998-3.339 23.374 5.533 7.376 15.998 8.871 23.374 3.339l6.678-5.009v41.739h-63.052L130.129 43.811C127.897 19.192 106.958.002 82.171.002H16.695C7.475.002 0 7.477 0 16.698c0 9.22 7.475 16.695 16.695 16.695H82.17c7.667 0 14.132 5.987 14.721 13.631.03.393.075.784.132 1.173 2.711 18.249 52.49 353.311 55.101 370.894-14.454 8.795-24.126 24.698-24.126 42.82 0 27.618 22.469 50.087 50.087 50.087 21.765 0 40.323-13.959 47.215-33.391h156.003c6.892 19.432 25.449 33.391 47.215 33.391 27.618 0 50.087-22.469 50.087-50.087 0-27.618-22.469-50.086-50.087-50.086-21.765 0-40.323 13.959-47.215 33.391H225.3c-6.163-17.376-21.655-30.362-40.428-32.919l-5.031-33.863h282.067c8.035 0 14.93-5.722 16.41-13.619zm-49.8 80.401c9.206 0 16.695 7.49 16.695 16.695 0 9.206-7.49 16.695-16.695 16.695-9.206 0-16.695-7.49-16.695-16.695 0-9.206 7.489-16.695 16.695-16.695zM244.867 100.175l83.478-62.608 83.478 62.608v66.782h-33.391v-16.695c0-27.618-22.469-50.086-50.087-50.086s-50.086 22.469-50.086 50.086v16.695h-33.391v-66.782zm100.173 50.087v16.695h-33.391v-16.695c0-9.206 7.49-16.695 16.695-16.695 9.207-.001 16.696 7.489 16.696 16.695zM194.781 461.9v.022c-.006 9.2-7.492 16.684-16.695 16.684-9.206 0-16.696-7.49-16.696-16.695 0-9.206 7.49-16.695 16.696-16.695 9.202 0 16.688 7.484 16.695 16.684zm-19.9-116.857l-21.496-144.694h321.798l-27.13 144.694H174.881z"/></symbol><symbol viewBox="0 0 486.569 486.569" id="cart" xmlns="http://www.w3.org/2000/svg"><path d="M146.069 320.369h268.1c30.4 0 55.2-24.8 55.2-55.2v-114c0-.2 0-.4-.1-.6 0-.2-.1-.5-.1-.7s-.1-.4-.1-.6c-.1-.2-.1-.4-.2-.7-.1-.2-.1-.4-.2-.6-.1-.2-.1-.4-.2-.6-.1-.2-.2-.4-.3-.7-.1-.2-.2-.4-.3-.5l-.3-.6c-.1-.2-.2-.3-.3-.5-.1-.2-.3-.4-.4-.6-.1-.2-.2-.3-.4-.5-.1-.2-.3-.3-.4-.5s-.3-.3-.4-.5-.3-.3-.4-.4l-.5-.5c-.2-.1-.3-.3-.5-.4-.2-.1-.4-.3-.6-.4-.2-.1-.3-.2-.5-.3s-.4-.2-.6-.4l-.6-.3-.6-.3-.6-.3c-.2-.1-.4-.1-.6-.2-.2-.1-.5-.2-.7-.2s-.4-.1-.5-.1c-.3-.1-.5-.1-.8-.1-.1 0-.2-.1-.4-.1l-339.8-46.9v-47.4c0-.5 0-1-.1-1.4 0-.1 0-.2-.1-.4 0-.3-.1-.6-.1-.9-.1-.3-.1-.5-.2-.8 0-.2-.1-.3-.1-.5l-.3-.9c0-.1-.1-.3-.1-.4-.1-.3-.2-.5-.4-.8-.1-.1-.1-.3-.2-.4-.1-.2-.2-.4-.4-.6-.1-.2-.2-.3-.3-.5s-.2-.3-.3-.5-.3-.4-.4-.6l-.3-.3-.6-.6-.3-.3c-.2-.2-.4-.4-.7-.6-.1-.1-.3-.2-.4-.3-.2-.2-.4-.3-.6-.5-.3-.2-.6-.4-.8-.5-.1-.1-.2-.1-.3-.2-.4-.2-.9-.4-1.3-.6l-73.7-31c-6.9-2.9-14.8.3-17.7 7.2s.3 14.8 7.2 17.7l65.4 27.6v295.8c0 28 21 51.2 48.1 54.7-4.9 8.2-7.8 17.8-7.8 28 0 30.1 24.5 54.5 54.5 54.5s54.5-24.5 54.5-54.5c0-10-2.7-19.5-7.5-27.5h121.4c-4.8 8.1-7.5 17.5-7.5 27.5 0 30.1 24.5 54.5 54.5 54.5s54.5-24.5 54.5-54.5-24.5-54.5-54.5-54.5h-255c-15.6 0-28.2-12.7-28.2-28.2v-36.6c8.2 4.8 17.9 7.6 28.2 7.6zm67.2 111.6c0 15.2-12.4 27.5-27.5 27.5s-27.5-12.4-27.5-27.5 12.4-27.5 27.5-27.5 27.5 12.3 27.5 27.5zm215.4 0c0 15.2-12.4 27.5-27.5 27.5s-27.5-12.4-27.5-27.5 12.4-27.5 27.5-27.5 27.5 12.3 27.5 27.5zm-14.5-138.6h-268.1c-15.6 0-28.2-12.7-28.2-28.2v-145.9l324.5 44.7v101.1c0 15.7-12.7 28.3-28.2 28.3z"/></symbol><symbol viewBox="0 0 47.971 47.971" id="cross" xmlns="http://www.w3.org/2000/svg"><path d="M28.228 23.986L47.092 5.122a2.998 2.998 0 0 0 0-4.242 2.998 2.998 0 0 0-4.242 0L23.986 19.744 5.121.88a2.998 2.998 0 0 0-4.242 0 2.998 2.998 0 0 0 0 4.242l18.865 18.864L.879 42.85a2.998 2.998 0 1 0 4.242 4.241l18.865-18.864L42.85 47.091c.586.586 1.354.879 2.121.879s1.535-.293 2.121-.879a2.998 2.998 0 0 0 0-4.242L28.228 23.986z"/></symbol><symbol viewBox="0 0 488.8 488.8" id="delivery" xmlns="http://www.w3.org/2000/svg"><path d="M467.3 172.1c-13.2-14.3-32-22.2-52.9-22.2h-50.3v-27.2c0-6.6-5.4-12-12-12H112.5c-6.6 0-12 5.4-12 12v41.8H53.8c-6.6 0-12 5.4-12 12s5.4 12 12 12h58.8c6.6 0 12-5.4 12-12v-41.8h215.6v188.1h-113c-.5 0-1 0-1.5.1-6-14.8-20.5-25.3-37.4-25.3-17 0-31.5 10.6-37.4 25.5-.9-.2-1.7-.3-2.6-.3h-23.7v-41.9c0-6.6-5.4-12-12-12H53.8c-6.6 0-12 5.4-12 12s5.4 12 12 12h46.7v41.8c0 6.6 5.4 12 12 12H149c4 18 20.1 31.4 39.3 31.4s35.2-13.4 39.3-31.4h143.8c4.1 17.9 20.1 31.4 39.3 31.4s35.2-13.4 39.3-31.4h26.8c6.6 0 12-5.4 12-12V235c0-25.9-7.5-47.7-21.5-62.9zm-279 182.1c-9 0-16.3-7.3-16.3-16.3s7.3-16.3 16.3-16.3 16.3 7.3 16.3 16.3-7.3 16.3-16.3 16.3zm222.4 0c-9 0-16.3-7.3-16.3-16.3s7.3-16.3 16.3-16.3 16.3 7.3 16.3 16.3c-.1 9-7.4 16.3-16.3 16.3zm54.1-31.4H448c-6-14.7-20.5-25.2-37.3-25.2s-31.3 10.4-37.3 25.2h-9.2V173.9h50.3c31.5 0 50.3 22.9 50.3 61.2v87.7z"/><path d="M206.1 251.2c-4.7 4.7-4.7 12.3 0 17 2.3 2.3 5.4 3.5 8.5 3.5s6.1-1.2 8.5-3.5l30.9-30.9.1-.1c.2-.3.5-.5.7-.8.1-.2.2-.3.3-.5.1-.2.2-.3.4-.5l.3-.6c.1-.2.2-.3.3-.5l.3-.6c.1-.2.2-.3.2-.5.1-.2.1-.4.2-.6.1-.2.1-.4.2-.5.1-.2.1-.4.1-.6 0-.2.1-.4.1-.6 0-.2.1-.4.1-.7 0-.2.1-.3.1-.5.1-.8.1-1.6 0-2.4 0-.2 0-.3-.1-.5 0-.2-.1-.4-.1-.7 0-.2-.1-.4-.1-.6 0-.2-.1-.4-.1-.6-.1-.2-.1-.4-.2-.5-.1-.2-.1-.4-.2-.6-.1-.2-.2-.3-.2-.5l-.3-.6c-.1-.2-.2-.3-.3-.5l-.3-.6c-.1-.2-.2-.3-.4-.5-.1-.2-.2-.3-.3-.5-.2-.3-.5-.5-.7-.8l-.1-.1-29.4-29.4c-4.7-4.7-12.3-4.7-17 0s-4.7 12.3 0 17l8.9 8.9H12c-6.6 0-12 5.4-12 12s5.4 12 12 12h204.4l-10.3 11z"/></symbol><symbol viewBox="0 0 96.124 96.123" id="fb" xmlns="http://www.w3.org/2000/svg"><path d="M72.089.02L59.624 0C45.62 0 36.57 9.285 36.57 23.656v10.907H24.037a1.96 1.96 0 0 0-1.96 1.961v15.803a1.96 1.96 0 0 0 1.96 1.96H36.57v39.876a1.96 1.96 0 0 0 1.96 1.96h16.352a1.96 1.96 0 0 0 1.96-1.96V54.287h14.654a1.96 1.96 0 0 0 1.96-1.96l.006-15.803a1.963 1.963 0 0 0-1.961-1.961H56.842v-9.246c0-4.444 1.059-6.7 6.848-6.7l8.397-.003a1.96 1.96 0 0 0 1.959-1.96V1.98A1.96 1.96 0 0 0 72.089.02z"/></symbol><symbol viewBox="0 0 26 22" id="github" xmlns="http://www.w3.org/2000/svg"><path d="M25.047 17.422C22.984 21.594 17.313 22 13.25 22 9.125 22 3.109 21.641.969 17.422.172 15.844 0 13.984 0 12.25c0-2.281.625-4.438 2.125-6.188a8.585 8.585 0 0 1-.422-2.656c0-1.172.266-2.343.797-3.406 2.469 0 4.047 1.078 5.922 2.547A20.895 20.895 0 0 1 13.25 2c1.469 0 2.953.156 4.375.5C19.484 1.047 21.063 0 23.5 0a7.629 7.629 0 0 1 .797 3.406c0 .891-.141 1.781-.422 2.625C25.375 7.797 26 9.969 26 12.25c0 1.734-.172 3.578-.953 5.172zM18.5 10.5c-1.031 0-2.016.188-3.047.328-.812.125-1.625.172-2.453.172s-1.641-.047-2.453-.172c-1.016-.14-2.016-.328-3.047-.328-2.547 0-4 2.109-4 4.5 0 4.781 4.375 5.516 8.188 5.516h2.625c3.813 0 8.188-.734 8.188-5.516-.001-2.391-1.454-4.5-4.001-4.5zM8 18c-1.406 0-2-1.859-2-3s.594-3 2-3 2 1.859 2 3-.594 3-2 3zm10 0c-1.406 0-2-1.859-2-3s.594-3 2-3 2 1.859 2 3-.594 3-2 3z"/></symbol><symbol viewBox="0 0 169.063 169.063" id="inst" xmlns="http://www.w3.org/2000/svg"><path d="M122.406 0H46.654C20.929 0 0 20.93 0 46.655v75.752c0 25.726 20.929 46.655 46.654 46.655h75.752c25.727 0 46.656-20.93 46.656-46.655V46.655C169.063 20.93 148.133 0 122.406 0zm31.657 122.407c0 17.455-14.201 31.655-31.656 31.655H46.654C29.2 154.063 15 139.862 15 122.407V46.655C15 29.201 29.2 15 46.654 15h75.752c17.455 0 31.656 14.201 31.656 31.655v75.752z"/><path d="M84.531 40.97c-24.021 0-43.563 19.542-43.563 43.563 0 24.02 19.542 43.561 43.563 43.561s43.563-19.541 43.563-43.561c0-24.021-19.542-43.563-43.563-43.563zm0 72.123c-15.749 0-28.563-12.812-28.563-28.561 0-15.75 12.813-28.563 28.563-28.563s28.563 12.813 28.563 28.563c0 15.749-12.814 28.561-28.563 28.561zm45.39-84.842c-2.89 0-5.729 1.17-7.77 3.22a11.053 11.053 0 0 0-3.23 7.78c0 2.891 1.18 5.73 3.23 7.78 2.04 2.04 4.88 3.22 7.77 3.22 2.9 0 5.73-1.18 7.78-3.22 2.05-2.05 3.22-4.89 3.22-7.78 0-2.9-1.17-5.74-3.22-7.78-2.04-2.05-4.88-3.22-7.78-3.22z"/></symbol><symbol viewBox="0 0 24 22.938" id="linkedin" xmlns="http://www.w3.org/2000/svg"><path d="M2.875 5.344h-.031C1.109 5.344 0 4.156 0 2.672 0 1.156 1.156 0 2.906 0c1.766 0 2.859 1.156 2.875 2.672.016 1.484-1.109 2.672-2.906 2.672zm2.578 17.594H.297V7.453h5.156v15.485zm18.547 0h-5.141v-8.281c0-2.078-.75-3.5-2.609-3.5-1.422 0-2.266.953-2.641 1.875-.125.344-.172.797-.172 1.266v8.641h-5.14c.063-14.031 0-15.484 0-15.484h5.141v2.25h-.031c.672-1.063 1.891-2.609 4.672-2.609 3.391 0 5.922 2.219 5.922 6.969v8.873z"/></symbol><symbol viewBox="0 0 31.012 31.012" id="mail" xmlns="http://www.w3.org/2000/svg"><path d="M28.512 26.529H2.5a2.503 2.503 0 0 1-2.5-2.5V6.982c0-1.379 1.122-2.5 2.5-2.5h26.012c1.378 0 2.5 1.121 2.5 2.5v17.047c0 1.379-1.122 2.5-2.5 2.5zM2.5 5.482c-.827 0-1.5.673-1.5 1.5v17.047c0 .827.673 1.5 1.5 1.5h26.012c.827 0 1.5-.673 1.5-1.5V6.982c0-.827-.673-1.5-1.5-1.5H2.5z"/><path d="M15.506 18.018c-.665 0-1.33-.221-1.836-.662L.891 6.219a.5.5 0 1 1 .658-.754l12.778 11.137c.64.557 1.72.556 2.358 0L29.46 5.466a.497.497 0 0 1 .706.049.5.5 0 0 1-.048.705L17.342 17.355c-.506.442-1.171.663-1.836.663z"/></symbol><symbol viewBox="0 0 511.999 511.999" id="paints" xmlns="http://www.w3.org/2000/svg"><path d="M396 40c-5.52 0-10 4.48-10 10s4.48 10 10 10 10-4.48 10-10-4.48-10-10-10zM246 452c-5.52 0-10 4.48-10 10s4.48 10 10 10 10-4.48 10-10-4.48-10-10-10z"/><path d="M456 60h-10V30c0-16.542-13.458-30-30-30H76C59.458 0 46 13.458 46 30v30H36c-5.523 0-10 4.478-10 10s4.477 10 10 10h10v33c0 16.542 13.458 30 30 30h340c16.542 0 30-13.458 30-30V80h10c5.514 0 10 4.486 10 10v65.84a9.946 9.946 0 0 1-8.479 9.887l-.227.037-195.979 34.762C246.638 202.842 236 215.285 236 230.16V243h-30c-8.01 0-15.543 3.121-21.211 8.79-5.668 5.668-8.789 13.2-8.789 21.21 0 16.085 12.726 29.251 28.639 29.965L186.55 443.869v.001l-.001.01-.007.056-.001.014a60.922 60.922 0 0 0-.54 8.049c0 33.084 26.916 60 60 60s60-26.916 60-60a60.91 60.91 0 0 0-.539-8.037l-.002-.026-18.097-140.97c7.499-.333 14.504-3.41 19.849-8.756 5.667-5.667 8.788-13.2 8.788-21.21 0-16.542-13.458-30-30-30h-30v-12.84a9.946 9.946 0 0 1 8.479-9.887l.227-.037 195.979-34.762C475.359 183.157 486 170.715 486 155.84V90c0-16.542-13.458-30-30-30zm-30 53c0 5.514-4.486 10-10 10H76c-5.514 0-10-4.486-10-10V30c0-5.514 4.486-10 10-10h340c5.514 0 10 4.486 10 10v83zM246 492c-22.056 0-40-17.944-40-40 0-1.8.125-3.634.37-5.451l.003-.035.005-.031L224.798 303h42.403l18.42 143.483.006.036.003.03c.246 1.817.37 3.651.37 5.451 0 22.056-17.944 40-40 40zm40-229c5.514 0 10 4.486 10 10a9.929 9.929 0 0 1-2.932 7.068A9.934 9.934 0 0 1 286 283h-80c-5.514 0-10-4.486-10-10a9.93 9.93 0 0 1 2.931-7.068A9.93 9.93 0 0 1 206 263h80z"/><path d="M356 40H96c-5.523 0-10 4.478-10 10s4.477 10 10 10h260c5.522 0 10-4.478 10-10s-4.478-10-10-10z"/></symbol><symbol viewBox="0 0 348.077 348.077" id="phone" xmlns="http://www.w3.org/2000/svg"><path d="M340.273 275.083l-53.755-53.761c-10.707-10.664-28.438-10.34-39.518.744l-27.082 27.076a792.327 792.327 0 0 1-5.344-2.973c-17.102-9.476-40.509-22.464-65.14-47.113-24.704-24.701-37.704-48.144-47.209-65.257-1.003-1.813-1.964-3.561-2.913-5.221l18.176-18.149 8.936-8.947c11.097-11.1 11.403-28.826.721-39.521L73.39 8.194c-10.682-10.68-28.421-10.356-39.518.744l-15.15 15.237.414.411c-5.08 6.482-9.325 13.958-12.484 22.02C3.74 54.28 1.927 61.603 1.098 68.941-6 127.785 20.89 181.564 93.866 254.541c100.875 100.868 182.167 93.248 185.674 92.876 7.638-.913 14.958-2.738 22.397-5.627 7.992-3.122 15.463-7.361 21.941-12.43l.331.294 15.348-15.029c11.074-11.098 11.393-28.83.716-39.542z"/></symbol><symbol viewBox="0 0 405.075 405.075" id="quality" xmlns="http://www.w3.org/2000/svg"><path d="M373.488 337.075l-59.2-104c6-2.8 9.6-9.2 9.2-16.4l-4.4-36.8 25.2-26.4c5.6-5.6 6-15.2.4-22l-25.2-27.2 5.2-37.2c.8-8-4.8-16-12.8-17.6l-36.4-7.2-17.6-32.4c-3.6-7.6-12.4-10.8-20.4-7.6h-.4l-33.6 15.6-32.8-16c-3.6-2-8-2.4-12-1.2s-7.2 4-9.2 7.6l-18 32.4-36.4 6.4c-8.4 1.6-14 9.2-13.2 18l4.4 36.8-25.2 26.4c-5.6 5.6-6 15.2-.4 22l25.2 27.2-5.2 37.2c-.8 7.2 3.6 14 10.4 16.8l-59.6 105.6c-1.6 2.4-1.2 5.6 0 8 1.6 2.4 4 4 6.8 4h64l29.2 50.8c1.6 2.4 4 4 6.8 4s5.6-1.6 6.8-4l57.2-97.6 57.2 98.8c1.6 2.4 4 4 6.8 4s5.6-1.6 6.8-4l29.2-52h64c2.8 0 5.6-1.6 6.8-4 2-2.4 2-5.6.4-8zm-234.8 42.8l-24.8-42.8c-1.6-2.4-4-4-6.8-4h-55.2l55.2-97.6 22.8 4 17.6 32.4c3.6 7.6 12.4 10.8 20.4 7.6h.4l16.4-7.6 8 14-54 94zm23.2-114.8h-.4l-17.6-33.2c-2.4-4-6.4-7.2-11.2-7.6l-36.8-6.8 5.2-36.8c.8-4.8-.8-10-4-13.2l-24.8-27.2 25.2-26.4c3.6-3.6 5.2-8.4 4.4-13.2l-4.4-36.4s0-.4.4-.8l36.4-6.4c4.4-.8 8.8-3.6 11.2-8l18-32.4 32.8 16c4.4 2.4 10 2.4 14.4 0l33.2-15.2h.4l17.6 33.2c2.4 4 6.4 7.2 10.8 7.6l36.4 7.2-5.2 36.8c-.8 4.8.8 10 4 13.2l25.2 27.2-25.6 26.4c-3.6 3.6-5.2 8.4-4.4 13.2l4.4 36.8-36 6c-4.4.8-8.8 3.6-11.2 8l-18 32.4-32.8-16c-4.4-2.4-10-2.4-14.4 0l-33.2 15.6zm136 68c-2.8 0-5.6 1.6-6.8 4l-24.8 44-56.4-97.6c-.4-1.2-.8-2-1.6-2.8l-8.8-15.6 2.8-1.2 32.8 16c2.4 1.2 4.8 1.6 7.2 1.6 5.6 0 11.2-2.8 14-8l18-32.4 24-4.4 54.8 96.4h-55.2z"/><path d="M282.288 141.075c0-44-36-80-80-80s-80 36-80 80 36 80 80 80 80-36 80-80zm-80 64c-35.2 0-64-28.8-64-64s28.8-64 64-64 64 28.8 64 64-28.8 64-64 64z"/></symbol><symbol viewBox="0 0 440 440" id="ruble" xmlns="http://www.w3.org/2000/svg"><path d="M232.522 242.428c63.913 0 115.91-54.382 115.91-121.227C348.432 54.37 296.435 0 232.522 0H120.568v282.428h-29v30h29V440h30V312.428h101.955v-30H150.568v-40h81.954zM150.568 30h81.955c47.371 0 85.91 40.912 85.91 91.201 0 50.303-38.539 91.227-85.91 91.227h-81.955V30z"/></symbol><symbol viewBox="0 0 410.23 410.23" id="search" xmlns="http://www.w3.org/2000/svg"><path d="M401.625 364.092l-107.1-107.1c19.125-26.775 30.6-59.288 30.6-93.713C325.125 73.391 252.45.717 162.563.717S0 73.392 0 163.279s72.675 162.562 162.562 162.562c34.425 0 66.938-11.475 93.713-30.6l107.1 107.1c9.562 9.562 26.775 9.562 38.25 0 11.475-11.474 11.475-26.775 0-38.249zm-239.063-76.5c-68.85 0-124.312-55.463-124.312-124.312 0-68.85 55.462-124.312 124.312-124.312S286.874 94.43 286.874 163.28c.001 68.849-55.462 124.312-124.312 124.312z"/></symbol><symbol viewBox="0 0 476 476" id="support" xmlns="http://www.w3.org/2000/svg"><path d="M400.85 181v-18.3c0-43.8-15.5-84.5-43.6-114.7-28.8-31-68.4-48-111.6-48h-15.1c-43.2 0-82.8 17-111.6 48-28.1 30.2-43.6 70.9-43.6 114.7V181c-34.1 2.3-61.2 30.7-61.2 65.4V275c0 36.1 29.4 65.5 65.5 65.5h36.9c6.6 0 12-5.4 12-12V192.8c0-6.6-5.4-12-12-12h-17.2v-18.1c0-79.1 56.4-138.7 131.1-138.7h15.1c74.8 0 131.1 59.6 131.1 138.7v18.1h-17.2c-6.6 0-12 5.4-12 12v135.6c0 6.6 5.4 12 12 12h16.8c-4.9 62.6-48 77.1-68 80.4-5.5-16.9-21.4-29.1-40.1-29.1h-30c-23.2 0-42.1 18.9-42.1 42.1s18.9 42.2 42.1 42.2h30.1c19.4 0 35.7-13.2 40.6-31 9.8-1.4 25.3-4.9 40.7-13.9 21.7-12.7 47.4-38.6 50.8-90.8 34.3-2.1 61.5-30.6 61.5-65.4v-28.6c.1-34.6-26.9-63.1-61-65.3zm-296.1 135.4h-24.9c-22.9 0-41.5-18.6-41.5-41.5v-28.6c0-22.9 18.6-41.5 41.5-41.5h24.9v111.6zM268.25 452h-30.1c-10 0-18.1-8.1-18.1-18.1s8.1-18.1 18.1-18.1h30.1c10 0 18.1 8.1 18.1 18.1s-8.1 18.1-18.1 18.1zm169.7-177.1c0 22.9-18.6 41.5-41.5 41.5h-24.9V204.8h24.9c22.9 0 41.5 18.6 41.5 41.5v28.6z"/></symbol><symbol viewBox="0 0 512 512" id="tile" xmlns="http://www.w3.org/2000/svg"><path d="M506.816 268.181l-145.984-87.595 18.219-11.584c3.072-1.963 4.928-5.355 4.928-9.003s-1.856-7.04-4.928-9.003L261.718 76.331a10.69 10.69 0 0 0-11.456 0l-117.333 74.667C129.856 152.96 128 156.352 128 160s1.856 7.04 4.928 9.003l18.219 11.605L5.184 268.181C1.984 270.101 0 273.557 0 277.29a10.636 10.636 0 0 0 5.12 9.152l245.333 149.333a10.6 10.6 0 0 0 5.547 1.557 10.6 10.6 0 0 0 5.547-1.557L506.88 286.443a10.71 10.71 0 0 0 5.12-9.152 10.692 10.692 0 0 0-5.184-9.11zM256 97.984L353.472 160 256 222.016 158.528 160 256 97.984zm-84.736 95.424l78.997 50.261a10.738 10.738 0 0 0 5.739 1.664c1.984 0 3.989-.555 5.717-1.664l78.997-50.283 14.059 8.448L256 264.704l-98.795-62.869 14.059-8.427zM31.296 277.355l105.472-63.253 99.371 63.232-100.181 63.744-104.662-63.723zM256 414.165l-99.733-60.715L256 289.984l99.733 63.467L256 414.165zm120.043-73.066l-100.181-63.765 99.371-63.232 105.472 63.275-104.662 63.722z"/></symbol><symbol viewBox="0 0 512.257 512.257" id="tools" xmlns="http://www.w3.org/2000/svg"><path d="M483.059 386.817c-10.639-7.487-22.917-11.509-35.319-12.165-46.744-30.61-77.364-53.585-95.241-71.462l-54.915-54.915 33.324-37.302c6.316 3.565 13.099 5.914 19.884 6.883 5.12.853 8.533.853 11.947.853 6.827 0 8.533 0 15.36 5.973-3.413 2.56-5.12 6.827-5.12 11.093s1.707 9.387 5.12 12.8l29.867 29.867c4.267 5.12 11.093 7.68 17.92 7.68s13.653-2.56 17.92-8.533l60.587-60.587c5.12-4.267 7.68-11.093 7.68-17.92s-2.56-12.8-7.68-17.92l-29.867-29.867c-3.413-3.413-7.68-5.12-11.947-5.12s-8.533 2.56-11.947 5.12c-6.827-5.973-6.827-7.68-6.827-14.507 0-3.413 0-7.68-1.707-12.8-1.707-11.947-7.68-23.893-17.067-33.28l-30.72-30.72c-17.92-17.92-26.453-26.453-49.493-36.693-49.493-23.04-99.84-18.773-173.227 14.507-4.267 1.707-5.973 5.12-5.12 9.387s4.267 6.827 8.533 6.827h11.093c37.547 0 57.173 0 91.307 34.133 14.946 14.946 15.377 37.863 1.986 54.724-1.805.272-3.179 1.082-4.546 2.449l-37.906 42.308-28.654-28.654c-31.494-31.494-53.646-61.291-70.695-94.47-.895-16.789-7.632-32.497-19.758-44.623C103.325 5.377 82.845-1.45 62.365.257c-2.56.853-5.12 2.56-5.973 4.267-1.707 2.56-1.707 5.973 0 8.533l23.893 42.667c-5.12 11.093-17.067 17.92-29.013 17.067L26.525 31.83c-.853-2.56-4.267-4.267-6.827-4.267-2.56-.853-5.12.853-6.827 3.413-20.48 30.72-12.8 71.68 17.92 93.013 10.584 7.56 22.508 11.764 34.584 12.626.135.057.262.127.402.174 33.28 17.067 63.147 39.253 94.72 70.827l31.209 30.499L10.312 440.577c-6.827 6.827-10.24 16.213-10.24 25.6s3.413 17.92 10.24 24.747l11.947 11.947c6.827 5.973 15.36 9.387 23.893 9.387s17.92-3.413 24.747-10.24l181.187-202.813 52.626 52.626c17.903 17.903 40.917 49.435 71.594 95.444 1.1 16.423 7.821 31.757 19.713 43.649 12.8 12.8 29.867 19.627 47.787 19.627h6.827c2.56 0 5.12-1.707 6.827-4.267s1.707-5.973 0-8.533l-24.747-41.813c5.973-11.093 17.067-17.92 29.867-17.067l23.893 40.96c.853 2.56 4.267 4.267 6.827 4.267 3.413-.853 5.973-1.707 7.68-4.267 20.479-30.721 11.945-71.681-17.921-93.014zm-194.56-312.32c-27.307-26.453-47.787-34.987-70.827-37.547 48.64-15.36 84.48-14.507 120.32 1.707 20.48 8.533 27.307 15.36 45.227 33.28l30.72 30.72c6.827 6.827 11.093 15.36 11.947 23.893.853 4.267.853 7.68.853 10.24 0 9.387.853 16.213 11.093 26.453 3.413 3.413 8.533 5.12 12.8 5.12 5.12 0 9.387-1.707 11.947-5.12l29.867 29.867c1.707 1.707 2.56 3.413 2.56 5.973s-.853 4.267-2.56 5.973l-60.587 60.587c-3.413 3.413-8.533 3.413-11.947 0l-29.867-29.867c3.413-2.56 5.12-6.827 4.267-11.947 0-4.267-1.707-9.387-5.12-12.8-10.24-10.24-17.067-11.093-26.453-11.093-2.56 0-5.973 0-10.24-.853-9.387-.853-17.067-5.12-23.893-11.947l-36.693-36.693c18.772-23.039 17.066-55.466-3.414-75.946zM20.552 54.017l17.92 30.72c1.707 2.56 4.267 4.267 6.827 4.267h4.267c19.627.853 37.547-9.387 46.08-26.453l1.707-4.267c1.707-2.56 1.707-5.12 0-7.68L78.579 18.177c10.24 1.707 19.627 6.827 27.307 14.507 8.798 9.531 14.431 21.585 14.764 34.533a8.77 8.77 0 0 0-.258 2.161c0 3.952-.477 7.807-1.36 11.523-3.219 12.356-10.938 23.129-21.68 30.291-17.067 11.093-40.107 11.093-57.173-.853-17.92-12.802-25.6-35.842-19.627-56.322zM172.445 195.67c-25.6-26.453-51.2-46.933-78.507-63.147 4.267-1.707 9.387-4.267 13.653-6.827 12.8-8.533 21.333-19.627 26.453-33.28 16.213 27.307 36.693 52.907 62.293 78.507l29.31 29.31-22.985 25.655-30.217-30.218zM58.952 489.217c-6.827 6.827-17.92 7.68-24.747.853l-11.947-11.093c-3.413-3.413-5.12-7.68-5.12-11.947 0-5.12 1.707-9.387 5.973-13.653l4.833-5.407 12.234 12.234c1.707 1.707 3.413 2.56 5.973 2.56s4.267-.853 5.973-2.56c3.413-3.413 3.413-8.533 0-11.947L39.22 435.353l11.277-12.617 13.574 13.574c1.707 1.707 3.413 2.56 5.973 2.56s4.267-.853 5.973-2.56c3.413-3.413 3.413-8.533 0-11.947L61.775 410.12l219.494-245.573 35.84 35.84-35.215 39.399c-1.006.426-1.896 1.077-2.782 1.964l-34.133 38.4a8.767 8.767 0 0 0-2.079 3.264L58.952 489.217zm204.81-203.083l23.353-26.14 55.143 55.143c15.36 16.213 41.813 36.693 80.213 62.293-5.12 1.707-10.24 4.267-15.36 7.68-10.587 6.617-18.085 15.804-23.31 25.96-.077.145-.148.293-.224.439a80.58 80.58 0 0 0-2.11 4.497c-.262.605-.523 1.21-.77 1.819l-.104.264a89.728 89.728 0 0 0-.788 2.008 1309.367 1309.367 0 0 0-13.995-20.138l11.435-11.435c3.413-3.413 3.413-8.533 0-11.947-3.413-3.413-8.533-3.413-11.947 0l-9.513 9.513a717.736 717.736 0 0 0-10.275-13.618l7.842-7.842c3.413-3.413 3.413-8.533 0-11.947-3.413-3.413-8.533-3.413-11.947 0l-6.514 6.514c-6.272-7.559-12.057-13.992-17.379-19.314l-53.75-53.749zM492.445 456.79l-17.92-30.72c-1.707-2.56-4.267-4.267-6.827-4.267h-4.267c-19.627-1.707-37.547 9.387-46.08 26.453l-1.707 4.267c-1.707 2.56-1.707 5.12 0 7.68l18.773 32.427c-10.24-1.707-19.627-6.827-27.307-14.507-8.631-9.351-14.21-21.13-14.735-33.797a8.877 8.877 0 0 0 .228-2.043c0-10.81 3.432-20.931 9.413-29.504a52.955 52.955 0 0 1 13.627-13.162c8.533-5.973 17.92-8.533 28.16-8.533 10.24 0 20.48 3.413 29.013 9.387 17.923 12.799 25.603 35.839 19.629 56.319z"/></symbol><symbol viewBox="0 0 304.36 304.36" id="vk" xmlns="http://www.w3.org/2000/svg"><path d="M261.945 175.576c10.096 9.857 20.752 19.131 29.807 29.982 4 4.822 7.787 9.798 10.684 15.394 4.105 7.955.387 16.709-6.746 17.184l-44.34-.02c-11.436.949-20.559-3.655-28.23-11.474-6.139-6.253-11.824-12.908-17.727-19.372-2.42-2.642-4.953-5.128-7.979-7.093-6.053-3.929-11.307-2.726-14.766 3.587-3.523 6.421-4.322 13.531-4.668 20.687-.475 10.441-3.631 13.186-14.119 13.664-22.414 1.057-43.686-2.334-63.447-13.641-17.422-9.968-30.932-24.04-42.691-39.971-22.895-31.021-40.428-65.108-56.186-100.15C-2.01 76.458.584 72.22 9.295 72.07c14.465-.281 28.928-.261 43.41-.02 5.879.086 9.771 3.458 12.041 9.012 7.826 19.243 17.402 37.551 29.422 54.521 3.201 4.518 6.465 9.036 11.113 12.216 5.142 3.521 9.057 2.354 11.476-3.374 1.535-3.632 2.207-7.544 2.553-11.434 1.146-13.383 1.297-26.743-.713-40.079-1.234-8.323-5.922-13.711-14.227-15.286-4.238-.803-3.607-2.38-1.555-4.799 3.564-4.172 6.916-6.769 13.598-6.769h50.111c7.889 1.557 9.641 5.101 10.721 13.039l.043 55.663c-.086 3.073 1.535 12.192 7.07 14.226 4.43 1.448 7.35-2.096 10.008-4.905 11.998-12.734 20.561-27.783 28.211-43.366 3.395-6.852 6.314-13.968 9.143-21.078 2.096-5.276 5.385-7.872 11.328-7.757l48.229.043c1.43 0 2.877.021 4.262.258 8.127 1.385 10.354 4.881 7.844 12.817-3.955 12.451-11.65 22.827-19.174 33.251-8.043 11.129-16.645 21.877-24.621 33.072-7.328 10.223-6.746 15.376 2.357 24.255zm0 0" fill-rule="evenodd" clip-rule="evenodd"/></symbol><symbol viewBox="0 0 456.704 456.704" id="wall" xmlns="http://www.w3.org/2000/svg"><path d="M332.352 328.704v-1.6h43.2c9.6 0 17.6-8 17.6-17.6v-45.6c0-9.6-8-17.6-17.6-17.6h-43.2v-47.2c0-9.6-8-17.6-17.6-17.6h-107.2c-4 0-7.2.8-9.6 3.2-3.2-1.6-6.4-3.2-9.6-3.2h-107.2c-9.6 0-17.6 8-17.6 17.6v45.6c0 9.6 8 17.6 17.6 17.6h43.2v48.8h-43.2c-9.6 0-17.6 8-17.6 17.6v45.6c0 9.6 8 17.6 17.6 17.6h43.2v47.2c0 9.6 8 17.6 17.6 17.6h107.2c4 0 7.2-.8 9.6-3.2 3.2 1.6 6.4 3.2 9.6 3.2h107.2c9.6 0 17.6-8 17.6-17.6v-45.6c0-9.6-8-17.6-17.6-17.6h-43.2v-47.2zm-124.8-132h107.2c.8 0 1.6.8 1.6 1.6v45.6c0 .8-.8 1.6-1.6 1.6h-106.4c-.8 0-1.6-.8-1.6-1.6v-45.6c-.8-.8 0-1.6.8-1.6zm0 66.4h40.8c.8 0 1.6.8 1.6 1.6v45.6c0 .8-.8 1.6-1.6 1.6h-106.4c-.8 0-1.6-.8-1.6-1.6v-45.6c0-.8.8-1.6 1.6-1.6h65.6zm-126.4-16.8c-.8 0-1.6-.8-1.6-1.6v-45.6c0-.8.8-1.6 1.6-1.6h107.2c.8 0 1.6.8 1.6 1.6v45.6c0 .8-.8 1.6-1.6 1.6h-107.2zm0 131.2c-.8 0-1.6-.8-1.6-1.6v-45.6c0-.8.8-1.6 1.6-1.6h107.2c.8 0 1.6.8 1.6 1.6v45.6c0 .8-.8 1.6-1.6 1.6h-107.2zm168 65.6h-107.2c-.8 0-1.6-.8-1.6-1.6v-45.6c0-.8.8-1.6 1.6-1.6h106.4c.8 0 1.6.8 1.6 1.6v45.6c.8.8 0 1.6-.8 1.6zm0-66.4h-40.8c-.8 0-1.6-.8-1.6-1.6v-45.6c0-.8.8-1.6 1.6-1.6h106.4c.8 0 1.6.8 1.6 1.6v45.6c0 .8-.8 1.6-1.6 1.6h-65.6zm126.4 16.8c.8 0 1.6.8 1.6 1.6v45.6c0 .8-.8 1.6-1.6 1.6h-107.2c-.8 0-1.6-.8-1.6-1.6v-45.6c0-.8.8-1.6 1.6-1.6h107.2zm-60.8-81.6h-46.4c-.8 0-1.6-.8-1.6-1.6v-45.6c0-.8.8-1.6 1.6-1.6h107.2c.8 0 1.6.8 1.6 1.6v45.6c0 .8-.8 1.6-1.6 1.6h-60.8zm-76.8-153.6l-24-92c-.8-2.4-3.2-4.8-5.6-5.6-2.4-.8-5.6 0-8 2.4l-20 19.2v-13.6c0-2.4-.8-4.8-3.2-6.4l-8.8-7.2c3.2-7.2 1.6-15.2-4-20.8l-32.8-29.6c-7.2-6.4-18.4-6.4-24.8.8l-1.6 1.6c-6.4 7.2-6.4 18.4.8 24.8l32.8 29.6c3.2 3.2 7.2 4.8 12 4.8h.8c1.6 0 3.2-.8 4.8-.8l8 6.4v25.6l-30.4 30.4c-2.4 1.6-3.2 4.8-2.4 8 .8 3.2 2.4 4.8 5.6 5.6l90.4 27.2h2.4c2.4 0 4-.8 5.6-2.4 2.4-2.4 3.2-4.8 2.4-8zm-84.8-109.6l-1.6 1.6c-.8.8-1.6.8-1.6.8s-.8 0-1.6-.8l-32-29.6c-.8-.8-.8-1.6 0-2.4l1.6-1.6c.8-.8 1.6-.8 2.4 0l32.8 29.6c.8.8.8 1.6 0 2.4zm1.6 80.8l17.6-17.6 16.8 16c1.6 1.6 3.2 2.4 5.6 2.4s4-.8 5.6-2.4c3.2-3.2 3.2-8 0-11.2l-16.8-15.2 17.6-17.6 17.6 64.8-64-19.2z"/></symbol></svg>